HIERARCHY
ROOT reference
{
  OFFSET 0 0 0
  CHANNELS 6 Xposition Yposition Zposition Zrotation Xrotation Yrotation
  JOINT Hips
  {
    OFFSET 12.6392 86.5131 92.7628
    CHANNELS 6 Xposition Yposition Zposition Zrotation Xrotation Yrotation
    JOINT Spine
    {
      OFFSET 0 7.85829 0
      CHANNELS 6 Xposition Yposition Zposition Zrotation Xrotation Yrotation
      JOINT Spine1
      {
        OFFSET 0 25.1384 0
        CHANNELS 6 Xposition Yposition Zposition Zrotation Xrotation Yrotation
        JOINT Neck
        {
          OFFSET 0 25.0351 2.27592
          CHANNELS 6 Xposition Yposition Zposition Zrotation Xrotation Yrotation
          JOINT Head
          {
            OFFSET 0 13.4166 -1.91665
            CHANNELS 6 Xposition Yposition Zposition Zrotation Xrotation Yrotation
            End Site
            {
              OFFSET 0 23.9582 0
            }
          }
        }
        JOINT LeftShoulder
        {
          OFFSET 3.81534 24.0346 -0.234509
          CHANNELS 6 Xposition Yposition Zposition Zrotation Xrotation Yrotation
          JOINT LeftArm
          {
            OFFSET 8.62273 0 0
            CHANNELS 6 Xposition Yposition Zposition Zrotation Xrotation Yrotation
            JOINT LeftForeArm
            {
              OFFSET 31.7064 0 0
              CHANNELS 6 Xposition Yposition Zposition Zrotation Xrotation Yrotation
              JOINT LeftHand
              {
                OFFSET 23.7731 0 0
                CHANNELS 6 Xposition Yposition Zposition Zrotation Xrotation Yrotation
                End Site
                {
                  OFFSET 14.3749 0 0
                }
              }
            }
          }
        }
        JOINT RightShoulder
        {
          OFFSET -3.83608 24.0346 -0.234509
          CHANNELS 6 Xposition Yposition Zposition Zrotation Xrotation Yrotation
          JOINT RightArm
          {
            OFFSET -8.62273 0 0
            CHANNELS 6 Xposition Yposition Zposition Zrotation Xrotation Yrotation
            JOINT RightForeArm
            {
              OFFSET -31.7064 0 0
              CHANNELS 6 Xposition Yposition Zposition Zrotation Xrotation Yrotation
              JOINT RightHand
              {
                OFFSET -23.7731 0 0
                CHANNELS 6 Xposition Yposition Zposition Zrotation Xrotation Yrotation
                End Site
                {
                  OFFSET -14.3749 0 0
                }
              }
            }
          }
        }
      }
    }
    JOINT LeftUpLeg
    {
      OFFSET 9.58328 0 0
      CHANNELS 6 Xposition Yposition Zposition Zrotation Xrotation Yrotation
      JOINT LeftLeg
      {
        OFFSET 0 -36.4535 0
        CHANNELS 6 Xposition Yposition Zposition Zrotation Xrotation Yrotation
        JOINT LeftFoot
        {
          OFFSET 0 -41.4659 0
          CHANNELS 6 Xposition Yposition Zposition Zrotation Xrotation Yrotation
          JOINT LeftToeBase
          {
            OFFSET 0 -6.22913 14.3749
            CHANNELS 6 Xposition Yposition Zposition Zrotation Xrotation Yrotation
            End Site
            {
              OFFSET 0 0 3.83331
            }
          }
        }
      }
    }
    JOINT RightUpLeg
    {
      OFFSET -9.58328 0 0
      CHANNELS 6 Xposition Yposition Zposition Zrotation Xrotation Yrotation
      JOINT RightLeg
      {
        OFFSET 0 -36.4535 0
        CHANNELS 6 Xposition Yposition Zposition Zrotation Xrotation Yrotation
        JOINT RightFoot
        {
          OFFSET 0 -41.4659 0
          CHANNELS 6 Xposition Yposition Zposition Zrotation Xrotation Yrotation
          JOINT RightToeBase
          {
            OFFSET 0 -6.22913 14.3749
            CHANNELS 6 Xposition Yposition Zposition Zrotation Xrotation Yrotation
            End Site
            {
              OFFSET 0 0 3.83331
            }
          }
        }
      }
    }
  }
}
MOTION
Frames:	8
Frame Time:	0.004
0 0 0 0 0 -0 -6.31209 77.6545 -201.967 0.710567 -2.82524 -1.4583 0 7.85829 0 -1.36608 -8.58642 0.274406 1.77636e-015 25.1384 0 1.28994 0.062432 0.386128 8.88178e-016 25.0351 2.27592 -1.06913 31.4101 0.874507 -8.88178e-016 13.4166 -1.91665 2.6307 -14.1306 1.44193 3.81534 24.0346 -0.234509 7.28149 3.59096 3.20703 8.62273 0 0 -9.78741 6.54816 -5.02652 31.7064 0 0 3.33566 -6.14928 2.0567 23.7731 0 0 10.7992 -6.42198 -2.26857 -3.83608 24.0346 -0.234509 -7.07202 1.49968 5.94477 -8.62273 -2.84217e-014 0 5.97279 1.50399 0.672324 -31.7064 -2.84217e-014 0 -2.66766 -4.37661 2.33537 -23.7731 0 0 -10.1669 -4.57232 2.82106 9.58328 0 -2.84217e-014 0.92311 10.0826 0.588413 8.88178e-016 -36.4535 0 -8.70804 -5.57131 1.01018 -1.77636e-015 -41.4659 0 15.3643 -8.91841 6.75067 0 -6.22913 14.3749 -1.98785e-016 -7.95139e-016 -0 -9.58328 -1.42109e-014 0 -0.66673 2.06015 5.4414 0 -36.4535 -2.84217e-014 3.85173 9.64274 12.8621 0 -41.4659 2.84217e-014 -17.173 -13.0626 -21.4194 0 -6.22913 14.3749 -2.78299e-015 3.18055e-015 -0 
0 0 0 0 0 -0 -6.31805 77.6545 -201.959 0.710567 -2.82524 -1.4583 0 7.85829 0 -1.36608 -8.58642 0.274406 0 25.1384 0 1.27841 0.062432 0.386128 0 25.0351 2.27592 -1.04784 31.4104 0.874509 8.88178e-016 13.4166 -1.91665 2.60843 -14.1225 1.43628 3.81534 24.0346 -0.234509 7.32725 3.56032 3.20692 8.62273 0 0 -9.70184 6.27212 -5.0174 31.7064 2.84217e-014 -2.84217e-014 3.17836 -5.98281 1.99064 23.7731 2.84217e-014 0 10.9992 -6.25216 -2.23938 -3.83608 24.0346 -0.234509 -7.07156 1.49973 5.92738 -8.62273 -2.84217e-014 -2.84217e-014 5.96372 1.47717 0.665563 -31.7064 0 0 -2.65825 -4.36734 2.32406 -23.7731 -2.84217e-014 0 -10.201 -4.56449 2.82103 9.58328 1.42109e-014 0 0.92163 10.0961 0.596072 8.88178e-016 -36.4535 0 -8.70523 -5.59295 1.0351 -8.88178e-016 -41.4659 0 15.3197 -8.90562 6.72921 0 -6.22913 14.3749 -3.97569e-016 -1.59028e-015 -1.59028e-015 -9.58328 0 2.84217e-014 -0.668027 2.07376 5.44144 -1.77636e-015 -36.4535 0 3.8606 9.62973 12.8283 0 -41.4659 0 -17.2171 -13.0668 -21.4171 0 -6.22913 14.3749 2.28602e-015 -1.59028e-015 -3.97569e-016 
0 0 0 0 0 -0 -6.32318 77.6545 -201.951 0.710646 -2.82524 -1.45671 1.77636e-015 7.85829 0 -1.36237 -8.58292 0.274404 0 25.1384 2.84217e-014 1.26868 0.059702 0.387348 -8.88178e-016 25.0351 2.27592 -1.03728 31.4376 0.871781 0 13.4166 -1.91665 2.59468 -14.1424 1.43158 3.81534 24.0346 -0.234509 7.35453 3.53495 3.20367 8.62273 0 2.84217e-014 -9.64154 6.13627 -4.99331 31.7064 -2.84217e-014 2.84217e-014 3.14902 -5.8486 1.9457 23.7731 0 0 11.0601 -6.11552 -2.21917 -3.83608 24.0346 -0.234509 -7.07591 1.49089 5.93894 -8.62273 0 0 5.95582 1.43858 0.633184 -31.7064 0 0 -2.64203 -4.33599 2.31692 -23.7731 2.84217e-014 -2.84217e-014 -10.2211 -4.53431 2.82091 9.58328 1.42109e-014 2.84217e-014 0.921022 10.107 0.598906 -4.44089e-016 -36.4535 0 -8.70425 -5.5964 1.04452 1.77636e-015 -41.4659 0 15.3321 -8.91038 6.71797 0 -6.22913 14.3749 1.19271e-015 1.59028e-015 -0 -9.58328 1.42109e-014 2.84217e-014 -0.669896 2.09336 5.44151 0 -36.4535 0 3.85537 9.61387 12.8784 1.42109e-014 -41.4659 0 -17.2575 -13.0363 -21.4662 0 -6.22913 14.3749 1.78906e-015 0 -0 
0 0 0 0 0 -0 -6.32883 77.6545 -201.945 0.711447 -2.81577 -1.44531 0 7.85829 -2.84217e-014 -1.2814 -8.63634 0.274442 3.55271e-015 25.1384 0 1.06348 0.159038 0.372844 -8.88178e-016 25.0351 2.27592 -0.854623 31.4322 0.858454 0 13.4166 -1.91665 2.51339 -14.1856 1.42479 3.81534 24.0346 -0.234509 7.49772 3.47525 3.25085 8.62273 -2.84217e-014 0 -9.58734 5.94173 -4.99096 31.7064 0 0 3.16726 -5.69942 1.91616 23.7731 -2.84217e-014 2.84217e-014 10.8445 -5.96769 -2.28252 -3.83608 24.0346 -0.234509 -6.85276 1.37845 5.99825 -8.62273 -2.84217e-014 0 5.86203 1.46786 0.561252 -31.7064 -2.84217e-014 0 -2.65426 -4.3121 2.30519 -23.7731 -2.84217e-014 0 -10.2204 -4.51073 2.82445 9.58328 -1.42109e-014 -2.84217e-014 0.921871 10.1012 0.581857 4.44089e-016 -36.4535 0 -8.70266 -5.59936 1.06021 0 -41.4659 2.84217e-014 15.3278 -8.91568 6.70373 -3.55271e-015 -6.22913 14.3749 -1.39149e-015 0 -0 -9.58328 0 -2.84217e-014 -0.670039 2.09826 5.43278 1.77636e-015 -36.4535 0 3.86608 9.59079 12.8469 -7.10543e-015 -41.4659 0 -17.2177 -13.0625 -21.4346 0 -6.22913 14.3749 -2.48481e-015 -3.18055e-015 -0 
0 0 0 0 0 -0 -6.33336 77.6545 -201.939 0.711691 -2.82835 -1.43005 0 7.85829 -2.84217e-014 -1.27556 -8.61398 0.274426 1.77636e-015 25.1384 0 1.05566 0.147785 0.369174 -8.88178e-016 25.0351 2.27592 -0.892234 31.4447 0.863989 8.88178e-016 13.4166 -1.91665 2.57044 -14.1763 1.43956 3.81534 24.0346 -0.234509 7.52673 3.45836 3.25081 8.62273 0 2.84217e-014 -9.52036 5.74455 -4.97491 31.7064 0 0 3.12991 -5.67083 1.86046 23.7731 -2.84217e-014 0 10.4023 -5.94477 -2.46615 -3.83608 24.0346 -0.234509 -6.85601 1.35696 6.00303 -8.62273 0 0 5.8562 1.44461 0.53096 -31.7064 0 2.84217e-014 -2.64537 -4.283 2.29748 -23.7731 2.84217e-014 0 -10.2551 -4.48354 2.83225 9.58328 -1.42109e-014 -2.84217e-014 0.921983 10.1201 0.567498 4.44089e-016 -36.4535 -2.84217e-014 -8.69841 -5.60974 1.0263 -8.88178e-016 -41.4659 2.84217e-014 15.3379 -8.89729 6.7371 0 -6.22913 14.3749 -7.95139e-016 -1.59028e-015 -1.59028e-015 -9.58328 -2.84217e-014 -2.84217e-014 -0.672637 2.12143 5.44338 1.77636e-015 -36.4535 0 3.88036 9.58495 12.8635 0 -41.4659 0 -17.2031 -13.0571 -21.4775 0 -6.22913 14.3749 1.98785e-015 3.18055e-015 7.95139e-016 
0 0 0 0 0 -0 -6.33831 77.6545 -201.935 0.712842 -2.81177 -1.41891 1.77636e-015 7.85829 0 -1.27373 -8.627 0.273731 0 25.1384 2.84217e-014 1.06237 0.148431 0.368893 0 25.0351 2.27592 -0.846882 31.4546 0.86045 8.88178e-016 13.4166 -1.91665 2.48437 -14.1805 1.41481 3.81534 24.0346 -0.234509 7.55716 3.43361 3.24674 8.62273 0 -2.84217e-014 -9.47209 5.60328 -4.95703 31.7064 0 -2.84217e-014 3.11445 -5.58123 1.80431 23.7731 2.84217e-014 0 10.4146 -5.85116 -2.43789 -3.83608 24.0346 -0.234509 -6.87127 1.3597 5.98839 -8.62273 -5.68434e-014 2.84217e-014 5.85069 1.44341 0.522021 -31.7064 -2.84217e-014 -2.84217e-014 -2.64153 -4.27214 2.28526 -23.7731 0 0 -10.2497 -4.47314 2.83477 9.58328 1.42109e-014 0 0.922147 10.0993 0.554324 -4.44089e-016 -36.4535 -2.84217e-014 -8.68618 -5.59743 1.05939 0 -41.4659 2.84217e-014 15.3163 -8.91291 6.70534 0 -6.22913 14.3749 1.39149e-015 0 -0 -9.58328 0 -2.84217e-014 -0.667298 2.11501 5.4439 0 -36.4535 0 3.87563 9.57296 12.8034 0 -41.4659 -2.84217e-014 -17.2316 -13.0561 -21.42 0 -6.22913 14.3749 -4.47266e-016 0 3.97569e-016 
0 0 0 0 0 -0 -6.34679 77.6545 -201.946 0.702337 -2.77371 -1.34813 0 7.85829 2.84217e-014 -1.27762 -8.63824 0.240387 0 25.1384 -2.84217e-014 1.06614 0.131402 0.335679 -1.77636e-015 25.0351 2.27592 -0.88397 31.4405 0.855166 -8.88178e-016 13.4166 -1.91665 2.54176 -14.1484 1.42561 3.81534 24.0346 -0.234509 7.59101 3.40777 3.24168 8.62273 0 2.84217e-014 -9.41663 5.42775 -4.93973 31.7064 2.84217e-014 2.84217e-014 3.07217 -5.45981 1.75617 23.7731 0 0 10.4181 -5.72956 -2.45586 -3.83608 24.0346 -0.234509 -6.87888 1.36044 5.98122 -8.62273 -2.84217e-014 0 5.84078 1.40701 0.507782 -31.7064 0 0 -2.63477 -4.25503 2.28179 -23.7731 0 -2.84217e-014 -10.278 -4.45754 2.84138 9.58328 0 2.84217e-014 0.961432 10.02 0.494671 -1.33227e-015 -36.4535 2.84217e-014 -8.70893 -5.559 1.01385 8.88178e-016 -41.4659 0 15.3949 -8.92741 6.7506 0 -6.22913 14.3749 2.38542e-015 -2.38542e-015 -0 -9.58328 0 2.84217e-014 -0.648692 2.0779 5.40025 0 -36.4535 0 3.88268 9.58318 12.8651 0 -41.4659 0 -17.2447 -13.0348 -21.5059 0 -6.22913 14.3749 4.96962e-016 0 -0 
0 0 0 0 0 -0 -6.35406 77.6545 -201.949 0.687476 -2.75484 -1.29944 -1.77636e-015 7.85829 0 -1.27946 -8.63689 0.221133 0 25.1384 0 1.09981 0.112577 0.316823 0 25.0351 2.27592 -0.878897 31.4553 0.852903 0 13.4166 -1.91665 2.48215 -14.1521 1.40615 3.81534 24.0346 -0.234509 7.60521 3.38301 3.23567 8.62273 0 2.84217e-014 -9.36809 5.38097 -4.9353 31.7064 -2.84217e-014 0 3.06169 -5.36657 1.73568 23.7731 -2.84217e-014 2.84217e-014 10.4577 -5.63783 -2.47031 -3.83608 24.0346 -0.234509 -6.92539 1.36153 5.97054 -8.62273 0 -2.84217e-014 5.84973 1.41994 0.487376 -31.7064 0 -2.84217e-014 -2.62801 -4.24719 2.28522 -23.7731 5.68434e-014 0 -10.3004 -4.44891 2.82591 9.58328 0 0 0.989686 9.97838 0.464608 4.44089e-016 -36.4535 0 -8.71551 -5.52474 1.02714 0 -41.4659 -2.84217e-014 15.3821 -8.97334 6.74953 0 -6.22913 14.3749 -2.20695e-032 7.95139e-016 1.59028e-015 -9.58328 0 0 -0.622169 2.06273 5.37178 -1.77636e-015 -36.4535 2.84217e-014 3.87571 9.57389 12.7751 0 -41.4659 -2.84217e-014 -17.2375 -13.059 -21.4389 0 -6.22913 14.3749 -2.43511e-015 0 7.95139e-016 
